<svg id="visual" viewBox="0 0 2000 1100" width="2000" height="1100" xmlns="http://www.w3.org/2000/svg" xmlns:xlink="http://www.w3.org/1999/xlink" version="1.1"><rect x="0" y="0" width="2000" height="1100" fill="#000"></rect><defs><linearGradient id="grad1_0" x1="45%" y1="0%" x2="100%" y2="100%"><stop offset="13.636363636363638%" stop-color="#000000" stop-opacity="1"></stop><stop offset="86.36363636363636%" stop-color="#000000" stop-opacity="1"></stop></linearGradient></defs><defs><linearGradient id="grad2_0" x1="0%" y1="0%" x2="55%" y2="100%"><stop offset="13.636363636363638%" stop-color="#000000" stop-opacity="1"></stop><stop offset="86.36363636363636%" stop-color="#000000" stop-opacity="1"></stop></linearGradient></defs><g transform="translate(2000, 0)"><path d="M0 440C-21.3 438 -42.6 436 -61.2 425.6C-79.8 415.2 -95.9 396.4 -113.3 385.7C-130.7 375 -149.5 372.4 -167 365.7C-184.5 358.9 -200.8 348 -217.3 338.2C-233.8 328.4 -250.6 319.7 -271.1 312.9C-291.6 306.1 -316 301.2 -332.5 288.1C-349.1 275.1 -357.9 253.9 -360.9 231.9C-363.9 209.9 -361 187.1 -369.3 168.7C-377.6 150.2 -396.9 136.1 -402 118C-407.1 100 -397.9 78.1 -401.9 57.8C-405.8 37.5 -422.9 18.7 -440 0L0 0Z" fill="#FA7268"></path></g><g transform="translate(0, 1100)"><path d="M0 -440C21.4 -440.3 42.8 -440.5 62.3 -433.5C81.9 -426.6 99.5 -412.4 118.6 -403.9C137.7 -395.5 158.3 -392.7 174.1 -381.1C189.8 -369.5 200.8 -349 217.9 -339C235 -329 258.3 -329.4 280.9 -324.2C303.6 -319 325.6 -308.1 331 -286.8C336.4 -265.6 325.2 -233.9 337.3 -216.8C349.5 -199.7 385.1 -197.2 400.2 -182.8C415.4 -168.3 410.2 -141.9 405.9 -119.2C401.5 -96.4 398 -77.3 403.8 -58.1C409.7 -38.8 424.8 -19.4 440 0L0 0Z" fill="#FA7268"></path></g></svg>