<svg id="visual" viewBox="0 0 2000 300" width="2000" height="300" xmlns="http://www.w3.org/2000/svg" xmlns:xlink="http://www.w3.org/1999/xlink" version="1.1"><path d="M0 72L33.3 71C66.7 70 133.3 68 200 74.5C266.7 81 333.3 96 400 105.5C466.7 115 533.3 119 600 118.8C666.7 118.7 733.3 114.3 800 112.5C866.7 110.7 933.3 111.3 1000 118C1066.7 124.7 1133.3 137.3 1200 146.2C1266.7 155 1333.3 160 1400 150.5C1466.7 141 1533.3 117 1600 114C1666.7 111 1733.3 129 1800 132.8C1866.7 136.7 1933.3 126.3 1966.7 121.2L2000 116L2000 301L1966.7 301C1933.3 301 1866.7 301 1800 301C1733.3 301 1666.7 301 1600 301C1533.3 301 1466.7 301 1400 301C1333.3 301 1266.7 301 1200 301C1133.3 301 1066.7 301 1000 301C933.3 301 866.7 301 800 301C733.3 301 666.7 301 600 301C533.3 301 466.7 301 400 301C333.3 301 266.7 301 200 301C133.3 301 66.7 301 33.3 301L0 301Z" fill="#fa7268"></path><path d="M0 126L33.3 136.8C66.7 147.7 133.3 169.3 200 184.5C266.7 199.7 333.3 208.3 400 201.2C466.7 194 533.3 171 600 172C666.7 173 733.3 198 800 199.2C866.7 200.3 933.3 177.7 1000 166.8C1066.7 156 1133.3 157 1200 161.7C1266.7 166.3 1333.3 174.7 1400 176.7C1466.7 178.7 1533.3 174.3 1600 167.7C1666.7 161 1733.3 152 1800 146.7C1866.7 141.3 1933.3 139.7 1966.7 138.8L2000 138L2000 301L1966.7 301C1933.3 301 1866.7 301 1800 301C1733.3 301 1666.7 301 1600 301C1533.3 301 1466.7 301 1400 301C1333.3 301 1266.7 301 1200 301C1133.3 301 1066.7 301 1000 301C933.3 301 866.7 301 800 301C733.3 301 666.7 301 600 301C533.3 301 466.7 301 400 301C333.3 301 266.7 301 200 301C133.3 301 66.7 301 33.3 301L0 301Z" fill="#e34c67"></path><path d="M0 269L33.3 261.2C66.7 253.3 133.3 237.7 200 230.2C266.7 222.7 333.3 223.3 400 230.2C466.7 237 533.3 250 600 242.8C666.7 235.7 733.3 208.3 800 207C866.7 205.7 933.3 230.3 1000 238.7C1066.7 247 1133.3 239 1200 228.2C1266.7 217.3 1333.3 203.7 1400 195.8C1466.7 188 1533.3 186 1600 194.3C1666.7 202.7 1733.3 221.3 1800 225.3C1866.7 229.3 1933.3 218.7 1966.7 213.3L2000 208L2000 301L1966.7 301C1933.3 301 1866.7 301 1800 301C1733.3 301 1666.7 301 1600 301C1533.3 301 1466.7 301 1400 301C1333.3 301 1266.7 301 1200 301C1133.3 301 1066.7 301 1000 301C933.3 301 866.7 301 800 301C733.3 301 666.7 301 600 301C533.3 301 466.7 301 400 301C333.3 301 266.7 301 200 301C133.3 301 66.7 301 33.3 301L0 301Z" fill="#c62368"></path></svg>